<!DOCTYPE svg PUBLIC "-//W3C//DTD SVG 1.1//EN" "http://www.w3.org/Graphics/SVG/1.1/DTD/svg11.dtd">
<!-- Uploaded to: SVG Repo, www.svgrepo.com, Transformed by: SVG Repo Mixer Tools -->
<svg height="64px" width="64px" version="1.1" id="Layer_1" xmlns="http://www.w3.org/2000/svg" xmlns:xlink="http://www.w3.org/1999/xlink" viewBox="0 0 511.999 511.999" xml:space="preserve" fill="#000000">
<g id="SVGRepo_bgCarrier" stroke-width="0"/>
<g id="SVGRepo_tracerCarrier" stroke-linecap="round" stroke-linejoin="round"/>
<g id="SVGRepo_iconCarrier"> <path style="fill:#FF675C;" d="M450.334,420.518l-81.961-81.973c0.086-0.11,0.168-0.222,0.253-0.333l0,0 c18.483-23.984,29.493-54.024,29.493-86.647c0-30.493-9.607-58.74-25.955-81.887l78.172-78.183c10.403,10.414,27.28,10.414,37.683,0 c10.403-10.403,10.403-27.28,0-37.683s-27.28-10.403-37.683,0c10.403-10.403,10.403-27.28,0-37.683s-27.28-10.403-37.683,0 s-10.403,27.28,0,37.683l-78.827,78.827l0.012,0.012c-22.359-14.666-49.098-23.203-77.836-23.203 c-28.731,0-55.467,8.531-77.823,23.191L99.35,53.812c10.403-10.403,10.403-27.28,0-37.683s-27.28-10.403-37.683,0 s-10.403,27.28,0,37.683c-10.403-10.403-27.28-10.403-37.683,0s-10.403,27.28,0,37.683c10.403,10.414,27.28,10.414,37.683,0 l78.173,78.184c-8.908,12.613-15.818,26.736-20.258,41.916l-5.698,39.97c0,32.778,11.113,62.95,29.756,86.99l-0.011-0.01 l-81.961,81.973c-10.403-10.414-27.28-10.414-37.683,0c-10.403,10.403-10.403,27.269,0,37.683c10.403,10.403,27.28,10.403,37.683,0 c-10.403,10.403-10.403,27.28,0,37.683c10.403,10.403,27.28,10.403,37.683,0c10.403-10.403,10.403-27.28,0-37.683l84.306-84.306 c1.16,0.687,2.326,1.367,3.506,2.022v62.177h137.676v-62.177c1.181-0.655,2.347-1.335,3.506-2.022l84.306,84.306 c-10.403,10.403-10.403,27.28,0,37.683c10.403,10.403,27.28,10.403,37.683,0c10.403-10.403,10.403-27.28,0-37.683 c10.403,10.403,27.28,10.403,37.683,0c10.403-10.414,10.403-27.28,0-37.683C477.613,410.103,460.737,410.103,450.334,420.518z M198.265,327.065c-22.073,0-39.97-17.898-39.97-39.97s17.898-39.97,39.97-39.97s39.97,17.898,39.97,39.97 S220.338,327.065,198.265,327.065z M313.735,327.065c-22.073,0-39.97-17.898-39.97-39.97s17.898-39.97,39.97-39.97 s39.97,17.898,39.97,39.97S335.807,327.065,313.735,327.065z"/> <g> <path style="fill:#5CC4E0;" d="M61.666,91.495l78.173,78.184c10.328-14.625,23.346-27.21,38.337-37.04L99.35,53.812 c10.403-10.403,10.403-27.28,0-37.683s-27.28-10.403-37.683,0s-10.403,27.28,0,37.683c-10.403-10.403-27.28-10.403-37.683,0 s-10.403,27.28,0,37.683C34.387,101.91,51.263,101.91,61.666,91.495z"/> <path style="fill:#5CC4E0;" d="M183.656,373.895c-15.596-9.243-29.264-21.387-40.28-35.682c0.085,0.11,0.168,0.223,0.253,0.333 l-81.961,81.973c-10.403-10.414-27.28-10.414-37.683,0c-10.403,10.403-10.403,27.269,0,37.683c10.403,10.403,27.28,10.403,37.683,0 c-10.403,10.403-10.403,27.28,0,37.683c10.403,10.403,27.28,10.403,37.683,0c10.403-10.403,10.403-27.28,0-37.683L183.656,373.895z "/> <path style="fill:#5CC4E0;" d="M450.334,91.495L372.16,169.68c-10.328-14.625-23.346-27.21-38.337-37.04l78.827-78.827 c-10.403-10.403-10.403-27.28,0-37.683s27.28-10.403,37.683,0c10.403,10.403,10.403,27.28,0,37.683 c10.403-10.403,27.28-10.403,37.683,0s10.403,27.28,0,37.683C477.613,101.91,460.737,101.91,450.334,91.495z"/> <path style="fill:#5CC4E0;" d="M328.344,373.895c15.596-9.243,29.264-21.387,40.28-35.682c-0.086,0.11-0.168,0.223-0.253,0.333 l81.961,81.973c10.403-10.414,27.28-10.414,37.683,0c10.403,10.403,10.403,27.269,0,37.683c-10.403,10.403-27.28,10.403-37.683,0 c10.403,10.403,10.403,27.28,0,37.683c-10.403,10.403-27.28,10.403-37.683,0c-10.403-10.403-10.403-27.28,0-37.683L328.344,373.895 z"/> </g> <g> <path style="fill:#439EE8;" d="M178.177,132.639l-27.142-27.142c-14.498,10.437-27.376,22.98-38.194,37.179l26.999,27.002 C150.167,155.056,163.186,142.47,178.177,132.639z"/> <path style="fill:#439EE8;" d="M143.375,338.212c0.085,0.11,0.168,0.223,0.253,0.333l-26.871,26.875 c11.309,13.814,24.633,25.912,39.523,35.85l27.375-27.375C168.06,364.652,154.392,352.508,143.375,338.212z"/> <path style="fill:#439EE8;" d="M372.16,169.68l26.999-27.002c-10.818-14.199-23.696-26.742-38.194-37.179l-27.142,27.142 C348.813,142.47,361.833,155.056,372.16,169.68z"/> <path style="fill:#439EE8;" d="M395.243,365.42l-26.871-26.874c0.086-0.11,0.168-0.222,0.253-0.333 c-11.016,14.295-24.684,26.439-40.28,35.682l27.375,27.375C370.609,391.332,383.934,379.234,395.243,365.42z"/> </g> <path style="fill:#FF675C;" d="M119.581,211.595c17.267-59.03,71.808-102.146,136.419-102.146 c78.488,0,142.117,63.628,142.117,142.117c0,53.512-29.581,100.109-73.279,124.351v62.177H187.162v-62.177 c-43.698-24.242-73.279-70.839-73.279-124.351 M198.265,247.124c-22.073,0-39.97,17.898-39.97,39.97s17.898,39.97,39.97,39.97 s39.97-17.898,39.97-39.97S220.338,247.124,198.265,247.124z M273.765,287.095c0,22.073,17.898,39.97,39.97,39.97 s39.97-17.898,39.97-39.97s-17.898-39.97-39.97-39.97S273.765,265.022,273.765,287.095z"/> <path style="fill:#DB3D5A;" d="M142.751,251.566l5.698-39.97c15.966-54.584,63.804-95.557,122.003-101.42 c-4.752-0.48-9.573-0.727-14.451-0.727c-64.611,0-119.152,43.117-136.419,102.146l-5.698,39.97 c0,53.512,29.581,100.109,73.279,124.351v62.177h28.867v-62.177C172.332,351.675,142.751,305.078,142.751,251.566z"/> <path d="M198.265,335.392c26.631,0,48.298-21.666,48.298-48.297s-21.666-48.297-48.298-48.297s-48.297,21.666-48.297,48.297 S171.634,335.392,198.265,335.392z M198.265,255.452c17.448,0,31.643,14.195,31.643,31.643s-14.195,31.643-31.643,31.643 s-31.643-14.195-31.643-31.643S180.817,255.452,198.265,255.452z"/> <path d="M362.032,287.095c0-26.631-21.666-48.297-48.297-48.297s-48.297,21.666-48.297,48.297s21.666,48.297,48.297,48.297 S362.032,313.726,362.032,287.095z M282.092,287.095c0-17.448,14.195-31.643,31.643-31.643s31.643,14.195,31.643,31.643 s-14.195,31.643-31.643,31.643S282.092,304.543,282.092,287.095z"/> <path d="M469.175,404.38c-6.5,0-12.729,1.762-18.142,5.061l-71.723-71.732c17.357-24.856,27.134-54.805,27.134-86.142 c0-29.716-8.662-57.446-23.592-80.801l68.182-68.191c5.413,3.299,11.641,5.061,18.142,5.061c9.344,0,18.128-3.641,24.729-10.249 c13.635-13.637,13.635-35.825,0-49.461c-7.539-7.539-17.691-10.903-27.571-10.111c0.798-9.877-2.573-20.031-10.111-27.571 C449.617,3.636,440.835,0,431.492,0c-9.343,0-18.125,3.636-24.731,10.241c-11.607,11.608-13.335,29.412-5.18,42.863l-69.011,69.011 c-22.446-13.327-48.627-20.993-76.571-20.993c-27.342,0-53.51,7.208-76.616,20.948l-68.966-68.965 c8.155-13.451,6.427-31.255-5.179-42.863C98.633,3.636,89.85,0,80.507,0c-9.342,0-18.124,3.636-24.729,10.241 c-7.539,7.54-10.91,17.694-10.111,27.571c-9.878-0.788-20.031,2.573-27.571,10.111C4.459,61.56,4.459,83.748,18.093,97.381 c6.604,6.612,15.387,10.252,24.732,10.252c6.5,0,12.729-1.762,18.142-5.061l68.179,68.189 c-7.622,11.933-13.583,24.909-17.558,38.495c-1.291,4.414,1.24,9.039,5.655,10.33c4.42,1.296,9.04-1.241,10.33-5.655 c16.561-56.616,69.372-96.156,128.427-96.156c73.772,0,133.79,60.018,133.79,133.79c0,47.164-24.895,90.797-65.255,114.913 c-0.229,0.118-0.452,0.248-0.671,0.387c-1.015,0.598-2.032,1.196-3.067,1.77c-2.646,1.468-4.287,4.256-4.287,7.282v53.85h-12.213 v-22.761c0-4.6-3.727-8.327-8.327-8.327c-4.6,0-8.327,3.727-8.327,8.327v22.761h-23.316v-22.761c0-4.6-3.727-8.327-8.327-8.327 c-4.6,0-8.327,3.727-8.327,8.327v22.761h-23.316v-22.761c0-4.6-3.727-8.327-8.327-8.327c-4.6,0-8.327,3.727-8.327,8.327v22.761 h-12.213v-53.85c0-3.027-1.642-5.813-4.287-7.282c-1.035-0.574-2.051-1.17-3.065-1.77c-0.219-0.14-0.442-0.27-0.671-0.387 c-40.36-24.115-65.255-67.75-65.255-114.913c0-4.6-3.727-8.327-8.327-8.327c-4.6,0-8.327,3.727-8.327,8.327 c0,31.337,9.776,61.286,27.134,86.142l-71.725,71.733c-5.413-3.299-11.641-5.061-18.142-5.061c-9.344,0-18.128,3.641-24.729,10.249 c-13.628,13.629-13.63,35.816,0,49.461c7.539,7.539,17.689,10.906,27.571,10.111c-0.798,9.877,2.573,20.031,10.111,27.571 c6.819,6.818,15.775,10.227,24.729,10.227c8.956,0,17.912-3.409,24.731-10.227c11.607-11.608,13.335-29.411,5.179-42.863 l68.417-68.417v47.601c0,4.6,3.727,8.327,8.327,8.327h137.676c4.6,0,8.327-3.727,8.327-8.327v-47.601l68.417,68.417 c-8.155,13.451-6.427,31.255,5.179,42.863c6.819,6.818,15.775,10.227,24.731,10.227c8.954,0,17.911-3.409,24.729-10.227 c7.539-7.54,10.91-17.695,10.111-27.571c9.883,0.798,20.033-2.574,27.573-10.115c13.628-13.642,13.625-35.829,0-49.454 C487.303,408.021,478.519,404.38,469.175,404.38z M138.999,157.062L67.554,85.608c-1.561-1.562-3.679-2.439-5.889-2.439 c0,0-0.001,0-0.002,0c-2.208,0-4.327,0.879-5.889,2.442c-3.459,3.462-8.058,5.369-12.95,5.369s-9.492-1.907-12.953-5.373 c-7.144-7.142-7.144-18.764,0-25.906c7.141-7.144,18.764-7.144,25.905,0c3.253,3.251,8.525,3.251,11.777,0 c1.625-1.627,2.438-3.758,2.438-5.889c0-2.131-0.813-4.262-2.438-5.889c-7.144-7.142-7.144-18.763,0-25.905 c7.141-7.141,18.765-7.144,25.906,0c7.144,7.142,7.144,18.763,0,25.905c-3.252,3.253-3.252,8.525,0,11.777l71.836,71.837 c-0.1,0.076-0.203,0.145-0.303,0.221C155.325,139.115,146.6,147.645,138.999,157.062z M346.655,131.586l71.883-71.884 c3.252-3.253,3.252-8.525,0-11.777c-7.144-7.142-7.144-18.763,0-25.905c7.143-7.144,18.766-7.141,25.906,0 c7.144,7.142,7.144,18.763,0,25.905c-1.625,1.627-2.438,3.758-2.438,5.889c0,2.131,0.813,4.262,2.438,5.889 c3.253,3.251,8.525,3.251,11.777,0c7.141-7.144,18.764-7.144,25.905,0c7.144,7.142,7.144,18.764-0.002,25.91 c-3.459,3.462-8.058,5.369-12.95,5.369c-4.892,0-9.492-1.907-12.95-5.369c-1.561-1.562-3.679-2.442-5.889-2.442 c-0.001,0-0.001,0-0.002,0c-2.208,0-4.327,0.877-5.889,2.439l-71.465,71.475C365.272,147.558,356.43,138.989,346.655,131.586z M93.461,452.313c-3.252,3.253-3.252,8.525,0,11.777c7.144,7.142,7.144,18.763,0,25.905c-7.139,7.144-18.763,7.145-25.906,0 c-7.144-7.142-7.144-18.763,0-25.905c1.625-1.627,2.438-3.758,2.438-5.889s-0.813-4.262-2.438-5.889 c-3.253-3.251-8.525-3.251-11.777,0c-7.141,7.144-18.762,7.144-25.903,0.003c-7.14-7.148-7.142-18.771,0-25.913 c3.459-3.462,8.058-5.369,12.95-5.369s9.492,1.907,12.95,5.369c1.561,1.562,3.679,2.442,5.889,2.442c0.001,0,0.001,0,0.002,0 c2.208,0,4.327-0.877,5.889-2.439l75.5-75.508c8.033,9.143,17.203,17.372,27.396,24.426L93.461,452.313z M482.128,452.313 c-7.141,7.144-18.764,7.144-25.905,0c-3.253-3.251-8.525-3.251-11.777,0c-1.625,1.627-2.438,3.758-2.438,5.889 s0.813,4.262,2.438,5.889c7.144,7.142,7.144,18.763,0,25.905c-7.141,7.145-18.765,7.144-25.906,0 c-7.144-7.142-7.144-18.763,0-25.905c3.252-3.253,3.252-8.525,0-11.777l-76.988-76.99c10.192-7.055,19.362-15.283,27.396-24.426 l75.5,75.508c1.561,1.562,3.68,2.439,5.889,2.439c0,0,0.001,0,0.002,0c2.208,0,4.327-0.879,5.889-2.442 c3.459-3.462,8.058-5.369,12.95-5.369s9.492,1.907,12.953,5.373C489.268,433.545,489.266,445.168,482.128,452.313z"/> <path d="M345.29,205.515c4.088,7.887,7.101,16.272,8.956,24.925c0.838,3.909,4.291,6.584,8.133,6.584 c0.578,0,1.167-0.061,1.754-0.188c4.497-0.964,7.361-5.39,6.396-9.887c-2.166-10.104-5.684-19.893-10.454-29.098 c-13.844-26.704-38.137-47.58-66.649-57.277c-4.357-1.481-9.084,0.849-10.566,5.203c-1.481,4.355,0.848,9.084,5.203,10.565 C312.547,164.668,333.405,182.591,345.29,205.515z"/> <path d="M266.813,134.925c-3.57-0.328-7.206-0.494-10.811-0.495c-0.001,0-0.001,0-0.002,0c-4.598,0-8.326,3.726-8.327,8.325 c-0.001,4.599,3.725,8.328,8.325,8.329c3.099,0.001,6.225,0.144,9.293,0.426c0.259,0.023,0.516,0.034,0.771,0.034 c4.255,0,7.886-3.245,8.283-7.565C274.765,139.4,271.393,135.346,266.813,134.925z"/> </g>
</svg>