<?xml version="1.0" standalone="no"?>
<!DOCTYPE svg PUBLIC "-//W3C//DTD SVG 20010904//EN"
 "http://www.w3.org/TR/2001/REC-SVG-20010904/DTD/svg10.dtd">
<svg version="1.0" xmlns="http://www.w3.org/2000/svg"
 width="439.000000pt" height="321.000000pt" viewBox="0 0 439.000000 321.000000"
 preserveAspectRatio="xMidYMid meet">

<g transform="translate(0.000000,321.000000) scale(0.100000,-0.100000)"
fill="#000000" stroke="none">
<path d="M0 1605 l0 -1605 2195 0 2195 0 0 1605 0 1605 -2195 0 -2195 0 0
-1605z m450 1525 l0 -30 85 0 85 0 0 -30 0 -30 85 0 c84 0 85 0 85 -25 0 -25
1 -25 80 -25 l80 0 0 -30 0 -30 60 0 60 0 0 -30 0 -30 85 0 c84 0 85 0 85 -25
0 -20 5 -25 25 -25 24 0 25 -3 25 -60 0 -57 -1 -60 -25 -60 -24 0 -25 -3 -25
-55 0 -54 0 -55 -30 -55 l-30 0 0 -85 0 -85 -30 0 c-30 0 -30 -1 -30 -55 l0
-55 85 0 85 0 0 -30 c0 -30 1 -30 55 -30 l55 0 0 -80 0 -80 -55 0 c-52 0 -55
1 -55 25 l0 25 -170 0 -170 0 0 30 c0 25 -4 30 -25 30 -20 0 -25 5 -25 25 0
20 5 25 25 25 l25 0 0 145 0 145 -25 0 c-20 0 -25 5 -25 25 l0 25 -140 0 -140
0 0 30 0 30 -140 0 -140 0 0 85 0 85 -30 0 -30 0 0 170 0 170 85 0 85 0 0 -30z
m2470 -1130 l0 -30 60 0 c57 0 60 -1 60 -25 0 -20 5 -25 25 -25 21 0 25 -5 25
-30 0 -30 1 -30 55 -30 54 0 55 0 55 -30 l0 -30 -80 0 c-79 0 -80 0 -80 -25 0
-24 3 -25 55 -25 54 0 55 0 55 -30 0 -25 4 -30 25 -30 21 0 25 5 25 30 l0 30
145 0 145 0 0 -30 0 -30 80 0 80 0 0 -30 0 -30 60 0 c57 0 60 -1 60 -25 0 -20
5 -25 25 -25 24 0 25 -3 25 -55 0 -54 0 -55 30 -55 l30 0 0 -200 0 -200 30 0
c25 0 30 -4 30 -25 0 -20 5 -25 25 -25 24 0 25 -3 25 -60 l0 -60 -55 0 c-52 0
-55 -1 -55 -25 0 -21 5 -25 30 -25 27 0 30 -3 30 -30 0 -27 -3 -30 -30 -30
-27 0 -30 -3 -30 -30 0 -27 -3 -30 -30 -30 -25 0 -30 -4 -30 -25 0 -24 -3 -25
-55 -25 -54 0 -55 0 -55 -30 l0 -30 -85 0 -85 0 0 -30 0 -30 -225 0 -225 0 0
30 c0 25 -4 30 -25 30 -21 0 -25 -5 -25 -30 0 -27 -3 -30 -30 -30 -30 0 -30
-1 -30 -55 0 -54 0 -55 30 -55 27 0 30 3 30 30 0 25 4 30 25 30 21 0 25 -5 25
-30 0 -25 -4 -30 -25 -30 -24 0 -25 -3 -25 -55 0 -54 0 -55 -30 -55 -27 0 -30
-3 -30 -30 0 -27 -3 -30 -30 -30 -27 0 -30 3 -30 30 0 25 -4 30 -25 30 -24 0
-25 -3 -25 -55 0 -52 1 -55 25 -55 21 0 25 -5 25 -30 0 -25 -4 -30 -25 -30
-21 0 -25 5 -25 30 0 27 -3 30 -30 30 l-30 0 0 -60 0 -60 -85 0 -85 0 0 30 c0
25 -4 30 -25 30 l-25 0 0 195 0 195 -145 0 -145 0 0 -25 c0 -25 -1 -25 -80
-25 l-80 0 0 55 0 55 -85 0 -85 0 0 30 c0 27 -3 30 -30 30 -25 0 -30 4 -30 25
0 21 -5 25 -30 25 -27 0 -30 3 -30 30 0 25 -4 30 -25 30 -21 0 -25 5 -25 30 0
27 -3 30 -30 30 l-30 0 0 85 c0 84 0 85 -25 85 l-25 0 0 225 0 225 25 0 c24 0
25 3 25 55 0 54 0 55 30 55 30 0 30 1 30 55 0 52 1 55 25 55 21 0 25 5 25 30
0 27 3 30 30 30 25 0 30 4 30 25 0 21 5 25 30 25 27 0 30 3 30 30 0 30 1 30
55 30 l55 0 0 -85 0 -85 30 0 c30 0 30 -1 30 -55 0 -52 1 -55 25 -55 21 0 25
-5 25 -30 0 -30 1 -30 55 -30 l55 0 0 200 0 200 30 0 c27 0 30 -3 30 -30 0
-30 1 -30 55 -30 l55 0 0 -195 0 -195 60 0 60 0 0 55 c0 52 1 55 25 55 24 0
25 3 25 55 0 54 0 55 30 55 27 0 30 3 30 30 0 27 -3 30 -30 30 -25 0 -30 4
-30 25 0 20 -5 25 -25 25 -25 0 -25 1 -25 85 0 84 0 85 25 85 20 0 25 -5 25
-25 0 -25 1 -25 85 -25 84 0 85 0 85 25 0 21 -5 25 -30 25 -27 0 -30 3 -30 30
l0 30 85 0 85 0 0 -30z"/>
<path d="M2810 1890 c0 -30 1 -30 55 -30 54 0 55 0 55 -30 l0 -30 60 0 60 0 0
30 0 30 -60 0 -60 0 0 30 c0 30 -1 30 -55 30 -54 0 -55 0 -55 -30z"/>
<path d="M2700 1660 c0 -30 1 -30 55 -30 52 0 55 -1 55 -25 0 -24 3 -25 55
-25 54 0 55 0 55 -30 l0 -30 60 0 c57 0 60 -1 60 -25 0 -20 5 -25 25 -25 20 0
25 5 25 25 0 20 -5 25 -25 25 -21 0 -25 5 -25 30 l0 30 -60 0 c-57 0 -60 1
-60 25 0 24 -3 25 -55 25 -54 0 -55 0 -55 30 0 30 -1 30 -55 30 -54 0 -55 0
-55 -30z"/>
<path d="M3650 1160 l0 -140 60 0 60 0 0 140 0 140 -60 0 -60 0 0 -140z"/>
<path d="M3370 1100 c0 -25 -4 -30 -25 -30 -20 0 -25 -5 -25 -25 0 -21 -5 -25
-30 -25 l-30 0 0 -60 0 -60 30 0 c25 0 30 -4 30 -25 0 -20 5 -25 25 -25 21 0
25 -5 25 -30 l0 -30 60 0 60 0 0 30 c0 25 4 30 25 30 20 0 25 5 25 25 0 21 5
25 30 25 27 0 30 3 30 30 0 27 -3 30 -30 30 -27 0 -30 3 -30 30 0 25 -4 30
-25 30 -20 0 -25 5 -25 25 0 21 -5 25 -30 25 -27 0 -30 3 -30 30 0 27 -3 30
-30 30 -27 0 -30 -3 -30 -30z"/>
<path d="M2360 1045 c0 -24 3 -25 55 -25 54 0 55 0 55 -30 l0 -30 60 0 60 0 0
-140 0 -140 25 0 c21 0 25 -5 25 -30 0 -25 -4 -30 -25 -30 -21 0 -25 -5 -25
-30 l0 -30 110 0 110 0 0 60 0 60 -85 0 -85 0 0 140 0 140 -25 0 c-21 0 -25 5
-25 30 l0 30 -60 0 c-57 0 -60 1 -60 25 0 24 -3 25 -55 25 -52 0 -55 -1 -55
-25z"/>
<path d="M2920 395 c0 -54 0 -55 30 -55 30 0 30 1 30 55 0 54 0 55 -30 55 -30
0 -30 -1 -30 -55z"/>
</g>
</svg>
