<!DOCTYPE svg PUBLIC "-//W3C//DTD SVG 1.1//EN" "http://www.w3.org/Graphics/SVG/1.1/DTD/svg11.dtd">

<!-- Uploaded to: SVG Repo, www.svgrepo.com, Transformed by: SVG Repo Mixer Tools -->
<svg width="35px" height="35px" viewBox="0 0 24 24" id="turn-rightsign" data-name="Multi Color" xmlns="http://www.w3.org/2000/svg" class="icon multi-color" fill="#000000">

<g id="SVGRepo_bgCarrier" stroke-width="0"/>

<g id="SVGRepo_tracerCarrier" stroke-linecap="round" stroke-linejoin="round"/>

<g id="SVGRepo_iconCarrier">

<title style="stroke-width: 2;">turn rightsign</title>

<rect id="tertiary-fill" x="3" y="18" width="4" height="3" transform="translate(10 39) rotate(180)" style="fill: #b7b7b7; stroke-width: 2;"/>

<path id="secondary-fill" d="M11,6v4h4v3l5.08-4.23a1,1,0,0,0,0-1.54L15,3V6Z" style="fill: #2ca9bc; stroke-width: 2;"/>

<path id="primary-stroke" d="M7,6h8V3l5.08,4.23a1,1,0,0,1,0,1.54L15,13V10H8a1,1,0,0,0-1,1v9a1,1,0,0,1-1,1H4a1,1,0,0,1-1-1V10H3A4,4,0,0,1,7,6Z" style="fill: none; stroke: #000000; stroke-linecap: round; stroke-linejoin: round; stroke-width: 2;"/>

</g>

</svg>